name C:\Users\u0101727\Documents\MyRepositories\upper-imu-dc\Results\main_tracking\Case_46\FLX02_linearAccelerations_groundFrame.mot
datacolumns 4
datarows 129
range 5.38000000 6.66000000
endheader 
time	radius_imu_x	radius_imu_y	radius_imu_z	
          5.38000000	         -0.15482390	          9.26845447	         -0.62124385	
          5.39000000	         -0.15885846	          9.27283675	         -0.63738258	
          5.40000000	         -0.16909545	          9.28739770	         -0.65032261	
          5.41000000	         -0.18525062	          9.31154140	         -0.65906488	
          5.42000000	         -0.20689204	          9.34418308	         -0.66248700	
          5.43000000	         -0.23336974	          9.38388493	         -0.65960580	
          5.44000000	         -0.26374476	          9.42903324	         -0.64986267	
          5.45000000	         -0.29676231	          9.47801781	         -0.63335517	
          5.46000000	         -0.33089576	          9.52937357	         -0.61095563	
          5.47000000	         -0.36445926	          9.58186312	         -0.58428899	
          5.48000000	         -0.39576241	          9.63450530	         -0.55557374	
          5.49000000	         -0.42327288	          9.68657012	         -0.52735240	
          5.50000000	         -0.44575650	          9.73755551	         -0.50216258	
          5.51000000	         -0.46236512	          9.78715068	         -0.48222216	
          5.52000000	         -0.47264831	          9.83518154	         -0.46920636	
          5.53000000	         -0.47649626	          9.88152958	         -0.46416150	
          5.54000000	         -0.47406524	          9.92603966	         -0.46752718	
          5.55000000	         -0.46574094	          9.96845479	         -0.47918096	
          5.56000000	         -0.45214890	         10.00840006	         -0.49843159	
          5.57000000	         -0.43417876	         10.04540512	         -0.52395314	
          5.58000000	         -0.41297894	         10.07894755	         -0.55373837	
          5.59000000	         -0.38989133	         10.10851945	         -0.58517419	
          5.60000000	         -0.36632161	         10.13372042	         -0.61527567	
          5.61000000	         -0.34358915	         10.15435007	         -0.64101025	
          5.62000000	         -0.32283177	         10.17044836	         -0.65959445	
          5.63000000	         -0.30500966	         10.18224883	         -0.66868560	
          5.64000000	         -0.29097552	         10.19005525	         -0.66648071	
          5.65000000	         -0.28151435	         10.19409199	         -0.65180804	
          5.66000000	         -0.27727524	         10.19438595	         -0.62428660	
          5.67000000	         -0.27862913	         10.19071592	         -0.58449982	
          5.68000000	         -0.28557060	         10.18262275	         -0.53403249	
          5.69000000	         -0.29773414	         10.16943577	         -0.47530909	
          5.70000000	         -0.31450763	         10.15029269	         -0.41130219	
          5.71000000	         -0.33519364	         10.12419417	         -0.34519615	
          5.72000000	         -0.35916358	         10.09015506	         -0.28005889	
          5.73000000	         -0.38595067	         10.04746560	         -0.21855668	
          5.74000000	         -0.41525481	          9.99600983	         -0.16273257	
          5.75000000	         -0.44687129	          9.93654814	         -0.11385649	
          5.76000000	         -0.48058213	          9.87087313	         -0.07235576	
          5.77000000	         -0.51604599	          9.80178800	         -0.03784592	
          5.78000000	         -0.55270319	          9.73291021	         -0.00928408	
          5.79000000	         -0.58970427	          9.66833815	          0.01476502	
          5.80000000	         -0.62588469	          9.61223513	          0.03581645	
          5.81000000	         -0.65981238	          9.56839289	          0.05519216	
          5.82000000	         -0.68990078	          9.53983771	          0.07382641	
          5.83000000	         -0.71453943	          9.52853823	          0.09212878	
          5.84000000	         -0.73219895	          9.53526479	          0.10987939	
          5.85000000	         -0.74151889	          9.55961767	          0.12619632	
          5.86000000	         -0.74142069	          9.60017426	          0.13964479	
          5.87000000	         -0.73126621	          9.65465949	          0.14849163	
          5.88000000	         -0.71102875	          9.72008742	          0.15102820	
          5.89000000	         -0.68140157	          9.79290609	          0.14585320	
          5.90000000	         -0.64377907	          9.86920568	          0.13203513	
          5.91000000	         -0.60010850	          9.94499586	          0.10913503	
          5.92000000	         -0.55267130	         10.01649605	          0.07712297	
          5.93000000	         -0.50386594	         10.08037482	          0.03625333	
          5.94000000	         -0.45603314	         10.13391254	         -0.01303430	
          5.95000000	         -0.41132370	         10.17510536	         -0.07014626	
          5.96000000	         -0.37159100	         10.20274309	         -0.13428585	
          5.97000000	         -0.33829562	         10.21647444	         -0.20434434	
          5.98000000	         -0.31241535	         10.21685061	         -0.27879202	
          5.99000000	         -0.29434532	         10.20533714	         -0.35566202	
          6.00000000	         -0.28376890	         10.18429775	         -0.43270156	
          6.01000000	         -0.27951133	         10.15694979	         -0.50767966	
          6.02000000	         -0.27944500	         10.12725842	         -0.57873713	
          6.03000000	         -0.28055370	         10.09970733	         -0.64461419	
          6.04000000	         -0.27924396	         10.07889817	         -0.70463213	
          6.05000000	         -0.27189734	         10.06900175	         -0.75842626	
          6.06000000	         -0.25553290	         10.07317026	         -0.80556202	
          6.07000000	         -0.22837147	         10.09306720	         -0.84523755	
          6.08000000	         -0.19014738	         10.12864260	         -0.87620357	
          6.09000000	         -0.14212873	         10.17818208	         -0.89691666	
          6.10000000	         -0.08693833	         10.23855557	         -0.90581666	
          6.11000000	         -0.02827084	         10.30556351	         -0.90162781	
          6.12000000	          0.02947510	         10.37435712	         -0.88362474	
          6.13000000	          0.08167991	         10.43993391	         -0.85186229	
          6.14000000	          0.12406377	         10.49769468	         -0.80729637	
          6.15000000	          0.15321149	         10.54395558	         -0.75174724	
          6.16000000	          0.16691681	         10.57630644	         -0.68766886	
          6.17000000	          0.16425117	         10.59374053	         -0.61774347	
          6.18000000	          0.14537353	         10.59655265	         -0.54438739	
          6.19000000	          0.11120449	         10.58608056	         -0.46931573	
          6.20000000	          0.06312331	         10.56440133	         -0.39330860	
          6.21000000	          0.00278847	         10.53406053	         -0.31623101	
          6.22000000	         -0.06793153	         10.49784209	         -0.23724949	
          6.23000000	         -0.14700430	         10.45854706	         -0.15514198	
          6.24000000	         -0.23230909	         10.41877384	         -0.06862597	
          6.25000000	         -0.32170111	         10.38074791	          0.02332778	
          6.26000000	         -0.41299261	         10.34625977	          0.12121774	
          6.27000000	         -0.50385404	         10.31670593	          0.22478796	
          6.28000000	         -0.59173354	         10.29315301	          0.33287146	
          6.29000000	         -0.67390295	         10.27634364	          0.44331815	
          6.30000000	         -0.74766193	         10.26662855	          0.55302882	
          6.31000000	         -0.81063593	         10.26387637	          0.65811219	
          6.32000000	         -0.86104175	         10.26744179	          0.75416334	
          6.33000000	         -0.89780313	         10.27624987	          0.83663891	
          6.34000000	         -0.92048578	         10.28898767	          0.90129418	
          6.35000000	         -0.92911740	         10.30433455	          0.94464004	
          6.36000000	         -0.92398498	         10.32115730	          0.96436064	
          6.37000000	         -0.90547554	         10.33862975	          0.95961078	
          6.38000000	         -0.87400962	         10.35626533	          0.93111371	
          6.39000000	         -0.83012078	         10.37385743	          0.88102636	
          6.40000000	         -0.77469743	         10.39132677	          0.81261152	
          6.41000000	         -0.70926136	         10.40852202	          0.72980920	
          6.42000000	         -0.63604333	         10.42508523	          0.63681625	
          6.43000000	         -0.55770636	         10.44047917	          0.53776007	
          6.44000000	         -0.47681148	         10.45416278	          0.43651337	
          6.45000000	         -0.39525193	         10.46582507	          0.33664986	
          6.46000000	         -0.31384893	         10.47559016	          0.24150553	
          6.47000000	         -0.23222574	         10.48411911	          0.15429287	
          6.48000000	         -0.14901320	         10.49254786	          0.07819484	
          6.49000000	         -0.06237385	         10.50223929	          0.01634383	
          6.50000000	          0.02926818	         10.51439486	         -0.02839120	
          6.51000000	          0.12649540	         10.52964555	         -0.05380360	
          6.52000000	          0.22834678	         10.54774644	         -0.05884959	
          6.53000000	          0.33205707	         10.56745487	         -0.04409344	
          6.54000000	          0.43315115	         10.58664375	         -0.01188962	
          6.55000000	          0.52592459	         10.60265965	          0.03384064	
          6.56000000	          0.60423214	         10.61284563	          0.08822227	
          6.57000000	          0.66239387	         10.61508010	          0.14628513	
          6.58000000	          0.69607292	         10.60819956	          0.20385498	
          6.59000000	          0.70304078	         10.59223834	          0.25827615	
          6.60000000	          0.68365869	         10.56845537	          0.30883409	
          6.61000000	          0.64086200	         10.53913865	          0.35679740	
          6.62000000	          0.57959949	         10.50719692	          0.40498882	
          6.63000000	          0.50590792	         10.47559004	          0.45684501	
          6.64000000	          0.42583023	         10.44670564	          0.51515619	
          6.65000000	          0.34428134	         10.42181037	          0.58086979	
          6.66000000	          0.26411022	         10.40073966	          0.65234743	
